<?xml version="1.0" encoding="UTF-8" standalone="no"?>
<!DOCTYPE svg PUBLIC "-//W3C//DTD SVG 1.1//EN" "http://www.w3.org/Graphics/SVG/1.1/DTD/svg11.dtd">
<svg width="100%" height="100%" viewBox="0 0 23 23" version="1.1" xmlns="http://www.w3.org/2000/svg" xmlns:xlink="http://www.w3.org/1999/xlink" xml:space="preserve" xmlns:serif="http://www.serif.com/" style="fill-rule:evenodd;clip-rule:evenodd;">
    <g id="circle" transform="matrix(0.445982,-4.38799e-21,4.38798e-21,-0.446017,-834.229,1086.37)">
        <path d="M1895.43,2386.77C1882.16,2386.77 1871.37,2397.56 1871.37,2410.83C1871.37,2424.1 1882.16,2434.9 1895.43,2434.9C1908.7,2434.9 1919.5,2424.1 1919.5,2410.83C1919.5,2397.56 1908.7,2386.77 1895.43,2386.77" style="fill:rgb(89,89,89);fill-rule:nonzero;"/>
    </g>
    <g id="circle1" serif:id="circle" transform="matrix(0.360206,-3.54404e-21,3.54404e-21,-0.360234,-671.646,879.564)">
        <path d="M1895.43,2386.77C1882.16,2386.77 1871.37,2397.56 1871.37,2410.83C1871.37,2424.1 1882.16,2434.9 1895.43,2434.9C1908.7,2434.9 1919.5,2424.1 1919.5,2410.83C1919.5,2397.56 1908.7,2386.77 1895.43,2386.77" style="fill:none;fill-rule:nonzero;stroke:rgb(26,26,26);stroke-width:5.17px;"/>
    </g>
    <g id="circle2" serif:id="circle" transform="matrix(0.445982,-4.38799e-21,4.38798e-21,-0.446017,-834.229,1086.37)">
        <path d="M1895.75,2435.7L1895.76,2435.7L1896.07,2435.69L1896.08,2435.69L1896.39,2435.68L1896.39,2435.68L1896.71,2435.67L1896.71,2435.67L1897.03,2435.65L1897.03,2435.65L1897.34,2435.63L1897.35,2435.63L1897.65,2435.6L1897.66,2435.6L1897.97,2435.57L1897.97,2435.57L1898.28,2435.54L1898.29,2435.54L1898.59,2435.5L1898.6,2435.5L1898.9,2435.46L1898.91,2435.46L1899.21,2435.41L1899.22,2435.41L1899.52,2435.36L1899.53,2435.36L1899.83,2435.31L1899.83,2435.31L1900.13,2435.25L1900.14,2435.25L1900.44,2435.19L1900.44,2435.19L1900.74,2435.13L1900.74,2435.13L1901.04,2435.06L1901.05,2435.06L1901.34,2434.99L1901.34,2434.99L1901.64,2434.91L1901.64,2434.91L1901.93,2434.84L1901.94,2434.84L1902.23,2434.75L1902.24,2434.75L1902.53,2434.67L1902.53,2434.67L1902.82,2434.58L1902.82,2434.58L1903.11,2434.49L1903.11,2434.49L1903.4,2434.39L1903.4,2434.39L1903.69,2434.29L1903.69,2434.29L1903.97,2434.19L1903.98,2434.19L1904.26,2434.08L1904.26,2434.08L1904.54,2433.97L1904.55,2433.97L1904.82,2433.86L1904.83,2433.86L1905.1,2433.74L1905.11,2433.74L1905.38,2433.62L1905.38,2433.62L1905.66,2433.5L1905.66,2433.5L1905.93,2433.37L1905.93,2433.37L1906.2,2433.24L1906.21,2433.24L1906.47,2433.11L1906.48,2433.11L1906.74,2432.97L1906.75,2432.97L1907.01,2432.84L1907.02,2432.83L1907.28,2432.69L1907.28,2432.69L1907.54,2432.55L1907.54,2432.55L1907.8,2432.4L1907.8,2432.4L1908.06,2432.25L1908.06,2432.25L1908.32,2432.09L1908.32,2432.09L1908.57,2431.94L1908.58,2431.93L1908.83,2431.78L1908.83,2431.77L1909.08,2431.61L1909.08,2431.61L1909.33,2431.45L1909.33,2431.44L1909.57,2431.28L1909.58,2431.28L1909.82,2431.11L1909.82,2431.1L1910.06,2430.93L1910.06,2430.93L1910.3,2430.75L1910.31,2430.75L1910.54,2430.57L1910.54,2430.57L1910.78,2430.39L1910.78,2430.39L1911.01,2430.2L1911.01,2430.2L1911.24,2430.01L1911.24,2430.01L1911.47,2429.82L1911.47,2429.82L1911.7,2429.63L1911.7,2429.63L1911.92,2429.43L1911.92,2429.43L1912.14,2429.23L1912.15,2429.23L1912.36,2429.03L1912.37,2429.03L1912.58,2428.83L1912.58,2428.82L1912.8,2428.62L1912.8,2428.62L1913.01,2428.41L1913.01,2428.41L1913.22,2428.2L1913.22,2428.19L1913.42,2427.98L1913.43,2427.98L1913.63,2427.76L1913.63,2427.76L1913.83,2427.55L1913.83,2427.54L1914.03,2427.32L1914.03,2427.32L1914.23,2427.1L1914.23,2427.1L1914.42,2426.87L1914.42,2426.87L1914.61,2426.64L1914.62,2426.64L1914.8,2426.41L1914.8,2426.41L1914.99,2426.18L1914.99,2426.17L1915.17,2425.94L1915.17,2425.94L1915.35,2425.7L1915.35,2425.7L1915.53,2425.46L1915.53,2425.46L1915.7,2425.22L1915.71,2425.22L1915.88,2424.98L1915.88,2424.97L1916.05,2424.73L1916.05,2424.72L1916.21,2424.48L1916.21,2424.48L1916.38,2424.23L1916.38,2424.22L1916.54,2423.97L1916.54,2423.97L1916.69,2423.72L1916.69,2423.72L1916.85,2423.46L1916.85,2423.46L1917,2423.2L1917,2423.2L1917.15,2422.94L1917.15,2422.94L1917.29,2422.68L1917.3,2422.68L1917.43,2422.41L1917.44,2422.41L1917.57,2422.15L1917.58,2422.14L1917.71,2421.88L1917.71,2421.87L1917.84,2421.61L1917.84,2421.6L1917.97,2421.33L1917.97,2421.33L1918.1,2421.06L1918.1,2421.05L1918.22,2420.78L1918.22,2420.78L1918.34,2420.51L1918.34,2420.5L1918.46,2420.23L1918.46,2420.22L1918.57,2419.94L1918.57,2419.94L1918.68,2419.66L1918.68,2419.66L1918.79,2419.38L1918.79,2419.37L1918.89,2419.09L1918.89,2419.09L1918.99,2418.8L1918.99,2418.8L1919.09,2418.51L1919.09,2418.51L1919.18,2418.22L1919.18,2418.22L1919.27,2417.93L1919.27,2417.92L1919.35,2417.64L1919.36,2417.63L1919.44,2417.34L1919.44,2417.33L1919.51,2417.04L1919.52,2417.04L1919.59,2416.74L1919.59,2416.74L1919.66,2416.44L1919.66,2416.44L1919.73,2416.14L1919.73,2416.14L1919.79,2415.84L1919.79,2415.84L1919.85,2415.54L1919.85,2415.53L1919.91,2415.23L1919.91,2415.22L1919.96,2414.92L1919.96,2414.92L1920.01,2414.62L1920.01,2414.61L1920.06,2414.31L1920.06,2414.3L1920.1,2414L1920.1,2413.99L1920.14,2413.68L1920.14,2413.68L1920.17,2413.37L1920.17,2413.37L1920.2,2413.06L1920.2,2413.05L1920.23,2412.74L1920.23,2412.74L1920.25,2412.43L1920.25,2412.42L1920.27,2412.11L1920.27,2412.11L1920.28,2411.79L1920.28,2411.79L1920.29,2411.47L1920.29,2411.47L1920.3,2411.16L1920.3,2411.15L1920.3,2410.84L1920.3,2410.83L1920.3,2410.51L1920.3,2410.51L1920.29,2410.19L1920.29,2410.19L1920.28,2409.88L1920.28,2409.87L1920.27,2409.56L1920.27,2409.55L1920.25,2409.24L1920.25,2409.24L1920.23,2408.93L1920.23,2408.92L1920.2,2408.61L1920.2,2408.61L1920.17,2408.3L1920.17,2408.29L1920.14,2407.98L1920.14,2407.98L1920.1,2407.67L1920.1,2407.67L1920.06,2407.36L1920.06,2407.36L1920.01,2407.05L1920.01,2407.05L1919.96,2406.74L1919.96,2406.74L1919.91,2406.44L1919.91,2406.43L1919.85,2406.13L1919.85,2406.13L1919.79,2405.83L1919.79,2405.83L1919.73,2405.53L1919.73,2405.52L1919.66,2405.23L1919.66,2405.22L1919.59,2404.93L1919.59,2404.92L1919.52,2404.63L1919.51,2404.62L1919.44,2404.33L1919.44,2404.33L1919.36,2404.03L1919.35,2404.03L1919.27,2403.74L1919.27,2403.74L1919.18,2403.45L1919.18,2403.44L1919.09,2403.16L1919.09,2403.15L1918.99,2402.87L1918.99,2402.86L1918.89,2402.58L1918.89,2402.57L1918.79,2402.29L1918.79,2402.29L1918.68,2402.01L1918.68,2402L1918.57,2401.72L1918.57,2401.72L1918.46,2401.44L1918.46,2401.44L1918.34,2401.16L1918.34,2401.16L1918.22,2400.89L1918.22,2400.88L1918.1,2400.61L1918.1,2400.61L1917.97,2400.34L1917.97,2400.33L1917.84,2400.06L1917.84,2400.06L1917.71,2399.79L1917.71,2399.79L1917.58,2399.52L1917.57,2399.52L1917.44,2399.26L1917.43,2399.25L1917.3,2398.99L1917.29,2398.99L1917.15,2398.73L1917.15,2398.72L1917,2398.47L1917,2398.46L1916.85,2398.21L1916.85,2398.2L1916.69,2397.95L1916.69,2397.95L1916.54,2397.69L1916.54,2397.69L1916.38,2397.44L1916.38,2397.44L1916.21,2397.19L1916.21,2397.18L1916.05,2396.94L1916.05,2396.94L1915.88,2396.69L1915.88,2396.69L1915.71,2396.45L1915.7,2396.45L1915.53,2396.21L1915.53,2396.2L1915.35,2395.97L1915.35,2395.96L1915.17,2395.73L1915.17,2395.72L1914.99,2395.49L1914.99,2395.49L1914.8,2395.26L1914.8,2395.25L1914.62,2395.03L1914.61,2395.02L1914.42,2394.8L1914.42,2394.79L1914.23,2394.57L1914.23,2394.57L1914.03,2394.35L1914.03,2394.34L1913.83,2394.12L1913.83,2394.12L1913.63,2393.9L1913.63,2393.9L1913.43,2393.69L1913.42,2393.68L1913.22,2393.47L1913.22,2393.47L1913.01,2393.26L1913.01,2393.26L1912.8,2393.05L1912.8,2393.05L1912.58,2392.84L1912.58,2392.84L1912.37,2392.64L1912.36,2392.64L1912.15,2392.44L1912.14,2392.43L1911.92,2392.24L1911.92,2392.23L1911.7,2392.04L1911.7,2392.04L1911.47,2391.85L1911.47,2391.84L1911.24,2391.66L1911.24,2391.65L1911.01,2391.47L1911.01,2391.46L1910.78,2391.28L1910.78,2391.28L1910.54,2391.1L1910.54,2391.09L1910.31,2390.92L1910.3,2390.91L1910.06,2390.74L1910.06,2390.74L1909.82,2390.56L1909.82,2390.56L1909.58,2390.39L1909.57,2390.39L1909.33,2390.22L1909.33,2390.22L1909.08,2390.06L1909.08,2390.05L1908.83,2389.89L1908.83,2389.89L1908.58,2389.73L1908.57,2389.73L1908.32,2389.58L1908.32,2389.57L1908.06,2389.42L1908.06,2389.42L1907.8,2389.27L1907.8,2389.27L1907.54,2389.12L1907.54,2389.12L1907.28,2388.98L1907.28,2388.97L1907.02,2388.83L1907.01,2388.83L1906.75,2388.7L1906.74,2388.69L1906.48,2388.56L1906.47,2388.56L1906.21,2388.43L1906.2,2388.42L1905.93,2388.3L1905.93,2388.29L1905.66,2388.17L1905.66,2388.17L1905.38,2388.05L1905.38,2388.05L1905.11,2387.93L1905.1,2387.93L1904.83,2387.81L1904.82,2387.81L1904.55,2387.7L1904.54,2387.7L1904.26,2387.59L1904.26,2387.59L1903.98,2387.48L1903.97,2387.48L1903.69,2387.38L1903.69,2387.38L1903.4,2387.28L1903.4,2387.28L1903.11,2387.18L1903.11,2387.18L1902.82,2387.09L1902.82,2387.09L1902.53,2387L1902.53,2387L1902.24,2386.91L1902.23,2386.91L1901.94,2386.83L1901.93,2386.83L1901.64,2386.75L1901.64,2386.75L1901.34,2386.68L1901.34,2386.68L1901.04,2386.61L1901.04,2386.61L1900.74,2386.54L1900.74,2386.54L1900.44,2386.48L1900.44,2386.47L1900.14,2386.42L1900.13,2386.41L1899.83,2386.36L1899.83,2386.36L1899.53,2386.31L1899.52,2386.3L1899.22,2386.26L1899.21,2386.26L1898.91,2386.21L1898.9,2386.21L1898.6,2386.17L1898.59,2386.17L1898.29,2386.13L1898.28,2386.13L1897.97,2386.1L1897.97,2386.1L1897.66,2386.07L1897.65,2386.07L1897.35,2386.04L1897.34,2386.04L1897.03,2386.02L1897.03,2386.02L1896.71,2386L1896.71,2386L1896.39,2385.99L1896.39,2385.99L1896.08,2385.98L1896.07,2385.98L1895.76,2385.97L1895.75,2385.97L1895.44,2385.97L1895.43,2386.77L1895.43,2385.97L1895.12,2385.97L1895.11,2385.97L1894.8,2385.98L1894.79,2385.98L1894.48,2385.99L1894.47,2385.99L1894.16,2386L1894.15,2386L1893.84,2386.02L1893.84,2386.02L1893.53,2386.04L1893.52,2386.04L1893.21,2386.07L1893.21,2386.07L1892.9,2386.1L1892.89,2386.1L1892.59,2386.13L1892.58,2386.13L1892.27,2386.17L1892.27,2386.17L1891.96,2386.21L1891.96,2386.21L1891.65,2386.26L1891.65,2386.26L1891.35,2386.3L1891.34,2386.31L1891.04,2386.36L1891.04,2386.36L1890.73,2386.41L1890.73,2386.42L1890.43,2386.47L1890.42,2386.48L1890.13,2386.54L1890.12,2386.54L1889.83,2386.61L1889.82,2386.61L1889.53,2386.68L1889.52,2386.68L1889.23,2386.75L1889.22,2386.75L1888.93,2386.83L1888.93,2386.83L1888.63,2386.91L1888.63,2386.91L1888.34,2387L1888.34,2387L1888.05,2387.09L1888.04,2387.09L1887.76,2387.18L1887.75,2387.18L1887.47,2387.28L1887.46,2387.28L1887.18,2387.38L1887.17,2387.38L1886.89,2387.48L1886.89,2387.48L1886.61,2387.59L1886.6,2387.59L1886.33,2387.7L1886.32,2387.7L1886.04,2387.81L1886.04,2387.81L1885.76,2387.93L1885.76,2387.93L1885.49,2388.05L1885.48,2388.05L1885.21,2388.17L1885.2,2388.17L1884.93,2388.29L1884.93,2388.3L1884.66,2388.42L1884.66,2388.43L1884.39,2388.56L1884.39,2388.56L1884.12,2388.69L1884.12,2388.7L1883.86,2388.83L1883.85,2388.83L1883.59,2388.97L1883.59,2388.98L1883.33,2389.12L1883.32,2389.12L1883.07,2389.27L1883.06,2389.27L1882.81,2389.42L1882.8,2389.42L1882.55,2389.57L1882.55,2389.58L1882.29,2389.73L1882.29,2389.73L1882.04,2389.89L1882.04,2389.89L1881.79,2390.05L1881.79,2390.06L1881.54,2390.22L1881.54,2390.22L1881.29,2390.39L1881.29,2390.39L1881.05,2390.56L1881.04,2390.56L1880.81,2390.74L1880.8,2390.74L1880.57,2390.91L1880.56,2390.92L1880.33,2391.09L1880.32,2391.1L1880.09,2391.28L1880.09,2391.28L1879.86,2391.46L1879.85,2391.47L1879.63,2391.65L1879.62,2391.66L1879.4,2391.84L1879.39,2391.85L1879.17,2392.04L1879.17,2392.04L1878.94,2392.23L1878.94,2392.24L1878.72,2392.43L1878.72,2392.44L1878.5,2392.64L1878.5,2392.64L1878.29,2392.84L1878.28,2392.84L1878.07,2393.05L1878.07,2393.05L1877.86,2393.26L1877.86,2393.26L1877.65,2393.47L1877.65,2393.47L1877.44,2393.68L1877.44,2393.69L1877.24,2393.9L1877.23,2393.9L1877.04,2394.12L1877.03,2394.12L1876.84,2394.34L1876.83,2394.35L1876.64,2394.57L1876.64,2394.57L1876.44,2394.79L1876.44,2394.8L1876.25,2395.02L1876.25,2395.03L1876.07,2395.25L1876.06,2395.26L1875.88,2395.49L1875.88,2395.49L1875.69,2395.72L1875.69,2395.73L1875.52,2395.96L1875.51,2395.97L1875.34,2396.2L1875.33,2396.21L1875.16,2396.45L1875.16,2396.45L1874.99,2396.69L1874.99,2396.69L1874.82,2396.94L1874.82,2396.94L1874.65,2397.18L1874.65,2397.19L1874.49,2397.44L1874.49,2397.44L1874.33,2397.69L1874.33,2397.69L1874.17,2397.95L1874.17,2397.95L1874.02,2398.2L1874.02,2398.21L1873.87,2398.46L1873.87,2398.47L1873.72,2398.72L1873.72,2398.73L1873.57,2398.99L1873.57,2398.99L1873.43,2399.25L1873.43,2399.26L1873.29,2399.52L1873.29,2399.52L1873.16,2399.79L1873.15,2399.79L1873.02,2400.06L1873.02,2400.06L1872.89,2400.33L1872.89,2400.34L1872.77,2400.61L1872.77,2400.61L1872.64,2400.88L1872.64,2400.89L1872.53,2401.16L1872.52,2401.16L1872.41,2401.44L1872.41,2401.44L1872.3,2401.72L1872.29,2401.72L1872.18,2402L1872.18,2402.01L1872.08,2402.29L1872.08,2402.29L1871.98,2402.57L1871.97,2402.58L1871.88,2402.86L1871.88,2402.87L1871.78,2403.15L1871.78,2403.16L1871.69,2403.44L1871.69,2403.45L1871.6,2403.74L1871.6,2403.74L1871.51,2404.03L1871.51,2404.03L1871.43,2404.33L1871.43,2404.33L1871.35,2404.62L1871.35,2404.63L1871.28,2404.92L1871.28,2404.93L1871.2,2405.22L1871.2,2405.23L1871.14,2405.52L1871.14,2405.53L1871.07,2405.83L1871.07,2405.83L1871.01,2406.13L1871.01,2406.13L1870.96,2406.43L1870.95,2406.44L1870.9,2406.74L1870.9,2406.74L1870.85,2407.05L1870.85,2407.05L1870.81,2407.36L1870.81,2407.36L1870.77,2407.67L1870.77,2407.67L1870.73,2407.98L1870.73,2407.98L1870.69,2408.29L1870.69,2408.3L1870.66,2408.61L1870.66,2408.61L1870.64,2408.92L1870.64,2408.93L1870.62,2409.24L1870.62,2409.24L1870.6,2409.55L1870.6,2409.56L1870.59,2409.87L1870.59,2409.88L1870.58,2410.19L1870.58,2410.19L1870.57,2410.51L1870.57,2410.51L1870.57,2410.83L1870.57,2410.84L1870.57,2411.15L1870.57,2411.16L1870.58,2411.47L1870.58,2411.47L1870.59,2411.79L1870.59,2411.79L1870.6,2412.11L1870.6,2412.11L1870.62,2412.42L1870.62,2412.43L1870.64,2412.74L1870.64,2412.74L1870.66,2413.05L1870.66,2413.06L1870.69,2413.37L1870.69,2413.37L1870.73,2413.68L1870.73,2413.68L1870.77,2413.99L1870.77,2414L1870.81,2414.3L1870.81,2414.31L1870.85,2414.61L1870.85,2414.62L1870.9,2414.92L1870.9,2414.92L1870.95,2415.22L1870.96,2415.23L1871.01,2415.53L1871.01,2415.54L1871.07,2415.84L1871.07,2415.84L1871.14,2416.14L1871.14,2416.14L1871.2,2416.44L1871.2,2416.44L1871.28,2416.74L1871.28,2416.74L1871.35,2417.04L1871.35,2417.04L1871.43,2417.33L1871.43,2417.34L1871.51,2417.63L1871.51,2417.64L1871.6,2417.92L1871.6,2417.93L1871.69,2418.22L1871.69,2418.22L1871.78,2418.51L1871.78,2418.51L1871.88,2418.8L1871.88,2418.8L1871.97,2419.09L1871.98,2419.09L1872.08,2419.37L1872.08,2419.38L1872.18,2419.66L1872.18,2419.66L1872.29,2419.94L1872.3,2419.94L1872.41,2420.22L1872.41,2420.23L1872.52,2420.5L1872.53,2420.51L1872.64,2420.78L1872.64,2420.78L1872.77,2421.05L1872.77,2421.06L1872.89,2421.33L1872.89,2421.33L1873.02,2421.6L1873.02,2421.61L1873.15,2421.87L1873.16,2421.88L1873.29,2422.14L1873.29,2422.15L1873.43,2422.41L1873.43,2422.41L1873.57,2422.68L1873.57,2422.68L1873.72,2422.94L1873.72,2422.94L1873.87,2423.2L1873.87,2423.2L1874.02,2423.46L1874.02,2423.46L1874.17,2423.72L1874.17,2423.72L1874.33,2423.97L1874.33,2423.97L1874.49,2424.22L1874.49,2424.23L1874.65,2424.48L1874.65,2424.48L1874.82,2424.72L1874.82,2424.73L1874.99,2424.97L1874.99,2424.98L1875.16,2425.22L1875.16,2425.22L1875.33,2425.46L1875.34,2425.46L1875.51,2425.7L1875.52,2425.7L1875.69,2425.94L1875.69,2425.94L1875.88,2426.17L1875.88,2426.18L1876.06,2426.41L1876.07,2426.41L1876.25,2426.64L1876.25,2426.64L1876.44,2426.87L1876.44,2426.87L1876.64,2427.1L1876.64,2427.1L1876.83,2427.32L1876.84,2427.32L1877.03,2427.54L1877.04,2427.55L1877.23,2427.76L1877.24,2427.76L1877.44,2427.98L1877.44,2427.98L1877.65,2428.19L1877.65,2428.2L1877.86,2428.41L1877.86,2428.41L1878.07,2428.62L1878.07,2428.62L1878.28,2428.82L1878.29,2428.83L1878.5,2429.03L1878.5,2429.03L1878.72,2429.23L1878.72,2429.23L1878.94,2429.43L1878.94,2429.43L1879.17,2429.63L1879.17,2429.63L1879.39,2429.82L1879.4,2429.82L1879.62,2430.01L1879.63,2430.01L1879.85,2430.2L1879.86,2430.2L1880.09,2430.39L1880.09,2430.39L1880.32,2430.57L1880.33,2430.57L1880.56,2430.75L1880.57,2430.75L1880.8,2430.93L1880.81,2430.93L1881.04,2431.1L1881.05,2431.11L1881.29,2431.28L1881.29,2431.28L1881.54,2431.44L1881.54,2431.45L1881.79,2431.61L1881.79,2431.61L1882.04,2431.77L1882.04,2431.78L1882.29,2431.93L1882.29,2431.94L1882.55,2432.09L1882.55,2432.09L1882.8,2432.25L1882.81,2432.25L1883.06,2432.4L1883.07,2432.4L1883.32,2432.55L1883.33,2432.55L1883.59,2432.69L1883.59,2432.69L1883.85,2432.83L1883.86,2432.84L1884.12,2432.97L1884.12,2432.97L1884.39,2433.11L1884.39,2433.11L1884.66,2433.24L1884.66,2433.24L1884.93,2433.37L1884.93,2433.37L1885.2,2433.5L1885.21,2433.5L1885.48,2433.62L1885.49,2433.62L1885.76,2433.74L1885.76,2433.74L1886.04,2433.86L1886.04,2433.86L1886.32,2433.97L1886.33,2433.97L1886.6,2434.08L1886.61,2434.08L1886.89,2434.19L1886.89,2434.19L1887.17,2434.29L1887.18,2434.29L1887.46,2434.39L1887.47,2434.39L1887.75,2434.49L1887.76,2434.49L1888.04,2434.58L1888.05,2434.58L1888.34,2434.67L1888.34,2434.67L1888.63,2434.75L1888.63,2434.75L1888.93,2434.84L1888.93,2434.84L1889.22,2434.91L1889.23,2434.91L1889.52,2434.99L1889.53,2434.99L1889.82,2435.06L1889.83,2435.06L1890.12,2435.13L1890.13,2435.13L1890.42,2435.19L1890.43,2435.19L1890.73,2435.25L1890.73,2435.25L1891.04,2435.31L1891.04,2435.31L1891.34,2435.36L1891.35,2435.36L1891.65,2435.41L1891.65,2435.41L1891.96,2435.46L1891.96,2435.46L1892.27,2435.5L1892.27,2435.5L1892.58,2435.54L1892.59,2435.54L1892.89,2435.57L1892.9,2435.57L1893.21,2435.6L1893.21,2435.6L1893.52,2435.63L1893.53,2435.63L1893.84,2435.65L1893.84,2435.65L1894.15,2435.67L1894.16,2435.67L1894.47,2435.68L1894.48,2435.68L1894.79,2435.69L1894.8,2435.69L1895.11,2435.7L1895.12,2435.7L1895.43,2435.7L1895.44,2435.7L1895.75,2435.7ZM1895.13,2434.09L1894.83,2434.09L1894.54,2434.08L1894.24,2434.06L1893.94,2434.05L1893.64,2434.03L1893.35,2434L1893.06,2433.97L1892.77,2433.94L1892.47,2433.91L1892.18,2433.87L1891.89,2433.83L1891.61,2433.78L1891.32,2433.73L1891.03,2433.68L1890.75,2433.62L1890.47,2433.56L1890.19,2433.5L1889.9,2433.43L1889.63,2433.36L1889.35,2433.29L1889.07,2433.21L1888.8,2433.13L1888.52,2433.05L1888.25,2432.96L1887.98,2432.87L1887.71,2432.78L1887.44,2432.68L1887.18,2432.58L1886.91,2432.48L1886.65,2432.37L1886.39,2432.26L1886.13,2432.15L1885.87,2432.04L1885.61,2431.92L1885.36,2431.8L1885.1,2431.67L1884.85,2431.55L1884.6,2431.42L1884.36,2431.28L1884.11,2431.15L1883.86,2431.01L1883.62,2430.87L1883.38,2430.72L1883.14,2430.58L1882.9,2430.43L1882.67,2430.27L1882.44,2430.12L1882.21,2429.96L1881.98,2429.8L1881.75,2429.63L1881.52,2429.47L1881.3,2429.3L1881.08,2429.13L1880.86,2428.95L1880.64,2428.78L1880.43,2428.6L1880.22,2428.41L1880.01,2428.23L1879.8,2428.04L1879.6,2427.86L1879.39,2427.66L1879.19,2427.47L1878.99,2427.27L1878.8,2427.08L1878.6,2426.87L1878.41,2426.67L1878.22,2426.47L1878.03,2426.26L1877.85,2426.05L1877.67,2425.83L1877.49,2425.62L1877.31,2425.4L1877.14,2425.18L1876.97,2424.96L1876.8,2424.74L1876.63,2424.52L1876.47,2424.29L1876.31,2424.06L1876.15,2423.83L1875.99,2423.6L1875.84,2423.36L1875.69,2423.12L1875.54,2422.88L1875.4,2422.64L1875.26,2422.4L1875.12,2422.16L1874.98,2421.91L1874.85,2421.66L1874.72,2421.41L1874.59,2421.16L1874.47,2420.91L1874.35,2420.65L1874.23,2420.4L1874.11,2420.14L1874,2419.88L1873.89,2419.62L1873.79,2419.35L1873.68,2419.09L1873.58,2418.82L1873.49,2418.55L1873.39,2418.28L1873.31,2418.01L1873.22,2417.74L1873.13,2417.47L1873.06,2417.19L1872.98,2416.92L1872.9,2416.64L1872.83,2416.36L1872.77,2416.08L1872.7,2415.8L1872.64,2415.51L1872.59,2415.23L1872.54,2414.95L1872.49,2414.66L1872.44,2414.37L1872.4,2414.08L1872.36,2413.79L1872.32,2413.5L1872.29,2413.21L1872.26,2412.91L1872.24,2412.62L1872.22,2412.32L1872.2,2412.03L1872.19,2411.73L1872.18,2411.43L1872.17,2411.13L1872.17,2410.83L1872.17,2410.53L1872.18,2410.23L1872.19,2409.93L1872.2,2409.64L1872.22,2409.34L1872.24,2409.04L1872.26,2408.75L1872.29,2408.46L1872.32,2408.16L1872.36,2407.87L1872.4,2407.58L1872.44,2407.29L1872.49,2407.01L1872.54,2406.72L1872.59,2406.43L1872.64,2406.15L1872.7,2405.87L1872.77,2405.59L1872.83,2405.3L1872.9,2405.03L1872.98,2404.75L1873.06,2404.47L1873.13,2404.2L1873.22,2403.92L1873.31,2403.65L1873.39,2403.38L1873.49,2403.11L1873.58,2402.84L1873.68,2402.58L1873.79,2402.31L1873.89,2402.05L1874,2401.79L1874.11,2401.53L1874.23,2401.27L1874.35,2401.01L1874.47,2400.76L1874.59,2400.5L1874.72,2400.25L1874.85,2400L1874.98,2399.76L1875.12,2399.51L1875.26,2399.26L1875.4,2399.02L1875.54,2398.78L1875.69,2398.54L1875.84,2398.3L1875.99,2398.07L1876.15,2397.84L1876.31,2397.61L1876.47,2397.38L1876.63,2397.15L1876.8,2396.93L1876.97,2396.7L1877.14,2396.48L1877.31,2396.26L1877.49,2396.05L1877.67,2395.83L1877.85,2395.62L1878.03,2395.41L1878.22,2395.2L1878.41,2395L1878.6,2394.79L1878.8,2394.59L1878.99,2394.39L1879.19,2394.2L1879.39,2394L1879.6,2393.81L1879.8,2393.62L1880.01,2393.43L1880.22,2393.25L1880.43,2393.07L1880.64,2392.89L1880.86,2392.71L1881.08,2392.54L1881.3,2392.37L1881.52,2392.2L1881.75,2392.03L1881.98,2391.87L1882.21,2391.71L1882.44,2391.55L1882.67,2391.39L1882.9,2391.24L1883.14,2391.09L1883.38,2390.94L1883.62,2390.8L1883.86,2390.66L1884.11,2390.52L1884.36,2390.38L1884.6,2390.25L1884.85,2390.12L1885.1,2389.99L1885.36,2389.87L1885.61,2389.75L1885.87,2389.63L1886.13,2389.51L1886.39,2389.4L1886.65,2389.3L1886.91,2389.19L1887.18,2389.09L1887.44,2388.99L1887.71,2388.89L1887.98,2388.8L1888.25,2388.71L1888.52,2388.62L1888.8,2388.54L1889.07,2388.46L1889.35,2388.38L1889.63,2388.31L1889.9,2388.24L1890.19,2388.17L1890.47,2388.11L1890.75,2388.05L1891.03,2387.99L1891.32,2387.94L1891.61,2387.89L1891.89,2387.84L1892.18,2387.8L1892.47,2387.76L1892.77,2387.73L1893.06,2387.69L1893.35,2387.67L1893.64,2387.64L1893.94,2387.62L1894.24,2387.6L1894.54,2387.59L1894.83,2387.58L1895.13,2387.58L1895.43,2387.57L1895.73,2387.58L1896.03,2387.58L1896.33,2387.59L1896.63,2387.6L1896.92,2387.62L1897.22,2387.64L1897.52,2387.67L1897.81,2387.69L1898.1,2387.73L1898.39,2387.76L1898.68,2387.8L1898.97,2387.84L1899.26,2387.89L1899.55,2387.94L1899.83,2387.99L1900.12,2388.05L1900.4,2388.11L1900.68,2388.17L1900.96,2388.24L1901.24,2388.31L1901.52,2388.38L1901.79,2388.46L1902.07,2388.54L1902.34,2388.62L1902.62,2388.71L1902.89,2388.8L1903.15,2388.89L1903.42,2388.99L1903.69,2389.09L1903.95,2389.19L1904.22,2389.3L1904.48,2389.4L1904.74,2389.51L1905,2389.63L1905.25,2389.75L1905.51,2389.87L1905.76,2389.99L1906.01,2390.12L1906.26,2390.25L1906.51,2390.38L1906.76,2390.52L1907,2390.66L1907.25,2390.8L1907.49,2390.94L1907.72,2391.09L1907.96,2391.24L1908.2,2391.39L1908.43,2391.55L1908.66,2391.71L1908.89,2391.87L1909.12,2392.03L1909.34,2392.2L1909.57,2392.37L1909.79,2392.54L1910,2392.71L1910.22,2392.89L1910.43,2393.07L1910.65,2393.25L1910.86,2393.43L1911.07,2393.62L1911.27,2393.81L1911.47,2394L1911.67,2394.2L1911.87,2394.39L1912.07,2394.59L1912.26,2394.79L1912.46,2395L1912.64,2395.2L1912.83,2395.41L1913.02,2395.62L1913.2,2395.83L1913.38,2396.05L1913.55,2396.26L1913.73,2396.48L1913.9,2396.7L1914.07,2396.93L1914.24,2397.15L1914.4,2397.38L1914.56,2397.61L1914.72,2397.84L1914.87,2398.07L1915.03,2398.3L1915.18,2398.54L1915.32,2398.78L1915.47,2399.02L1915.61,2399.26L1915.75,2399.51L1915.88,2399.76L1916.02,2400L1916.15,2400.25L1916.27,2400.5L1916.4,2400.76L1916.52,2401.01L1916.64,2401.27L1916.75,2401.53L1916.87,2401.79L1916.97,2402.05L1917.08,2402.31L1917.18,2402.58L1917.28,2402.84L1917.38,2403.11L1917.47,2403.38L1917.56,2403.65L1917.65,2403.92L1917.73,2404.2L1917.81,2404.47L1917.89,2404.75L1917.96,2405.03L1918.03,2405.3L1918.1,2405.59L1918.16,2405.87L1918.22,2406.15L1918.28,2406.43L1918.33,2406.72L1918.38,2407.01L1918.43,2407.29L1918.47,2407.58L1918.51,2407.87L1918.54,2408.16L1918.58,2408.46L1918.6,2408.75L1918.63,2409.04L1918.65,2409.34L1918.66,2409.64L1918.68,2409.93L1918.69,2410.23L1918.69,2410.53L1918.69,2410.83L1918.69,2411.13L1918.69,2411.43L1918.68,2411.73L1918.66,2412.03L1918.65,2412.32L1918.63,2412.62L1918.6,2412.91L1918.58,2413.21L1918.54,2413.5L1918.51,2413.79L1918.47,2414.08L1918.43,2414.37L1918.38,2414.66L1918.33,2414.95L1918.28,2415.23L1918.22,2415.51L1918.16,2415.8L1918.1,2416.08L1918.03,2416.36L1917.96,2416.64L1917.89,2416.92L1917.81,2417.19L1917.73,2417.47L1917.65,2417.74L1917.56,2418.01L1917.47,2418.28L1917.38,2418.55L1917.28,2418.82L1917.18,2419.09L1917.08,2419.35L1916.97,2419.62L1916.87,2419.88L1916.75,2420.14L1916.64,2420.4L1916.52,2420.65L1916.4,2420.91L1916.27,2421.16L1916.15,2421.41L1916.02,2421.66L1915.88,2421.91L1915.75,2422.16L1915.61,2422.4L1915.47,2422.64L1915.32,2422.88L1915.18,2423.12L1915.03,2423.36L1914.87,2423.6L1914.72,2423.83L1914.56,2424.06L1914.4,2424.29L1914.24,2424.52L1914.07,2424.74L1913.9,2424.96L1913.73,2425.18L1913.55,2425.4L1913.38,2425.62L1913.2,2425.83L1913.02,2426.05L1912.83,2426.26L1912.64,2426.47L1912.46,2426.67L1912.26,2426.87L1912.07,2427.08L1911.87,2427.27L1911.67,2427.47L1911.47,2427.66L1911.27,2427.86L1911.07,2428.04L1910.86,2428.23L1910.65,2428.41L1910.43,2428.6L1910.22,2428.78L1910,2428.95L1909.79,2429.13L1909.57,2429.3L1909.34,2429.47L1909.12,2429.63L1908.89,2429.8L1908.66,2429.96L1908.43,2430.12L1908.2,2430.27L1907.96,2430.43L1907.72,2430.58L1907.49,2430.72L1907.24,2430.87L1907,2431.01L1906.76,2431.15L1906.51,2431.28L1906.26,2431.42L1906.01,2431.55L1905.76,2431.67L1905.51,2431.8L1905.25,2431.92L1905,2432.04L1904.74,2432.15L1904.48,2432.26L1904.22,2432.37L1903.95,2432.48L1903.69,2432.58L1903.42,2432.68L1903.15,2432.78L1902.89,2432.87L1902.62,2432.96L1902.34,2433.05L1902.07,2433.13L1901.79,2433.21L1901.52,2433.29L1901.24,2433.36L1900.96,2433.43L1900.68,2433.5L1900.4,2433.56L1900.12,2433.62L1899.83,2433.68L1899.55,2433.73L1899.26,2433.78L1898.97,2433.83L1898.68,2433.87L1898.39,2433.91L1898.1,2433.94L1897.81,2433.97L1897.52,2434L1897.22,2434.03L1896.92,2434.05L1896.63,2434.06L1896.33,2434.08L1896.03,2434.09L1895.73,2434.09L1895.43,2434.09L1895.13,2434.09Z" style="fill:rgb(26,26,26);"/>
    </g>
    <g transform="matrix(1.21287,0,0,1.21287,-2.96213,-3.62868)">
        <circle cx="11.594" cy="12.144" r="4.122"/>
        <clipPath id="_clip1">
            <circle cx="11.594" cy="12.144" r="4.122"/>
        </clipPath>
        <g clip-path="url(#_clip1)">
            <g transform="matrix(0.966706,0,0,0.526525,1.83917,7.88)">
                <rect x="7.743" y="11.656" width="4.696" height="4.696" style="fill:rgb(89,89,89);"/>
            </g>
            <g transform="matrix(0.966706,0,0,0.59086,1.83917,4.41137)">
                <rect x="7.743" y="11.656" width="4.696" height="4.696" style="fill:rgb(38,38,38);"/>
            </g>
        </g>
        <path d="M11.67,6.26L11.745,6.261L11.82,6.264L11.895,6.267L11.97,6.271L12.045,6.277L12.119,6.283L12.194,6.29L12.268,6.298L12.341,6.307L12.415,6.317L12.488,6.327L12.561,6.339L12.634,6.351L12.706,6.365L12.778,6.379L12.85,6.394L12.921,6.41L12.992,6.427L13.063,6.445L13.134,6.464L13.204,6.483L13.274,6.503L13.343,6.525L13.412,6.547L13.481,6.569L13.549,6.593L13.617,6.617L13.685,6.643L13.757,6.671L13.885,6.723L14.016,6.78L14.146,6.841L14.274,6.905L14.4,6.971L14.524,7.041L14.646,7.113L14.767,7.188L14.885,7.266L15.001,7.347L15.115,7.43L15.227,7.516L15.337,7.604L15.445,7.695L15.55,7.789L15.654,7.885L15.754,7.983L15.853,8.084L15.949,8.187L16.042,8.293L16.134,8.401L16.222,8.51L16.308,8.622L16.391,8.737L16.472,8.853L16.55,8.971L16.625,9.092L16.697,9.214L16.767,9.338L16.833,9.464L16.897,9.592L16.957,9.722L17.015,9.853L17.067,9.981L17.095,10.053L17.12,10.121L17.145,10.189L17.168,10.257L17.191,10.326L17.213,10.395L17.234,10.464L17.255,10.534L17.274,10.604L17.293,10.675L17.311,10.745L17.327,10.817L17.344,10.888L17.359,10.96L17.373,11.032L17.386,11.104L17.399,11.177L17.411,11.25L17.421,11.323L17.431,11.397L17.44,11.47L17.448,11.544L17.455,11.618L17.461,11.693L17.466,11.768L17.471,11.842L17.474,11.917L17.476,11.993L17.478,12.068L17.478,12.144L17.478,12.219L17.476,12.295L17.474,12.37L17.471,12.445L17.466,12.52L17.461,12.595L17.455,12.669L17.448,12.743L17.44,12.817L17.431,12.891L17.421,12.964L17.411,13.038L17.399,13.111L17.386,13.183L17.373,13.256L17.359,13.328L17.344,13.399L17.327,13.471L17.311,13.542L17.293,13.613L17.274,13.683L17.255,13.753L17.234,13.823L17.213,13.893L17.191,13.962L17.168,14.03L17.145,14.099L17.12,14.167L17.095,14.234L17.067,14.306L17.015,14.434L16.957,14.566L16.897,14.695L16.833,14.823L16.767,14.949L16.697,15.074L16.625,15.196L16.55,15.316L16.472,15.434L16.391,15.551L16.308,15.665L16.222,15.777L16.133,15.887L16.042,15.995L15.949,16.1L15.853,16.203L15.754,16.304L15.654,16.402L15.55,16.498L15.445,16.592L15.337,16.683L15.227,16.772L15.115,16.858L15.001,16.941L14.885,17.021L14.767,17.099L14.646,17.175L14.524,17.247L14.4,17.316L14.274,17.383L14.146,17.446L14.016,17.507L13.885,17.564L13.757,17.617L13.685,17.645L13.617,17.67L13.549,17.694L13.481,17.718L13.412,17.741L13.343,17.763L13.274,17.784L13.204,17.804L13.134,17.824L13.063,17.842L12.992,17.86L12.921,17.877L12.85,17.893L12.778,17.908L12.706,17.923L12.634,17.936L12.561,17.949L12.488,17.96L12.415,17.971L12.341,17.981L12.268,17.99L12.194,17.998L12.119,18.005L12.045,18.011L11.97,18.016L11.895,18.02L11.82,18.024L11.745,18.026L11.67,18.027L11.594,18.028L11.519,18.027L11.443,18.026L11.368,18.024L11.293,18.02L11.218,18.016L11.143,18.011L11.069,18.005L10.995,17.998L10.921,17.99L10.847,17.981L10.773,17.971L10.7,17.96L10.627,17.949L10.555,17.936L10.482,17.923L10.41,17.908L10.338,17.893L10.267,17.877L10.196,17.86L10.125,17.842L10.055,17.824L9.984,17.804L9.915,17.784L9.845,17.763L9.776,17.741L9.707,17.718L9.639,17.694L9.571,17.67L9.504,17.645L9.431,17.617L9.303,17.564L9.172,17.507L9.042,17.446L8.915,17.383L8.788,17.316L8.664,17.247L8.542,17.175L8.422,17.099L8.303,17.021L8.187,16.941L8.073,16.858L7.961,16.772L7.851,16.683L7.743,16.592L7.638,16.498L7.535,16.402L7.434,16.304L7.335,16.203L7.239,16.1L7.146,15.995L7.055,15.887L6.966,15.777L6.88,15.665L6.797,15.551L6.716,15.434L6.638,15.316L6.563,15.196L6.491,15.074L6.422,14.949L6.355,14.823L6.291,14.695L6.231,14.566L6.173,14.434L6.121,14.306L6.093,14.234L6.068,14.167L6.043,14.099L6.02,14.03L5.997,13.962L5.975,13.893L5.954,13.823L5.934,13.753L5.914,13.683L5.895,13.613L5.878,13.542L5.861,13.471L5.845,13.399L5.83,13.328L5.815,13.256L5.802,13.183L5.789,13.111L5.778,13.038L5.767,12.964L5.757,12.891L5.748,12.817L5.74,12.743L5.733,12.669L5.727,12.595L5.722,12.52L5.718,12.445L5.714,12.37L5.712,12.295L5.71,12.219L5.71,12.144L5.71,12.068L5.712,11.993L5.714,11.917L5.718,11.842L5.722,11.768L5.727,11.693L5.733,11.618L5.74,11.544L5.748,11.47L5.757,11.397L5.767,11.323L5.778,11.25L5.789,11.177L5.802,11.104L5.815,11.032L5.83,10.96L5.845,10.888L5.861,10.817L5.878,10.745L5.895,10.675L5.914,10.604L5.934,10.534L5.954,10.464L5.975,10.395L5.997,10.326L6.02,10.257L6.043,10.189L6.068,10.121L6.093,10.053L6.121,9.981L6.173,9.853L6.231,9.722L6.291,9.592L6.355,9.464L6.422,9.338L6.491,9.214L6.563,9.092L6.638,8.971L6.716,8.853L6.797,8.737L6.88,8.622L6.966,8.51L7.055,8.401L7.146,8.293L7.239,8.187L7.335,8.084L7.434,7.983L7.535,7.885L7.638,7.789L7.743,7.695L7.851,7.604L7.961,7.516L8.073,7.43L8.187,7.347L8.303,7.266L8.422,7.188L8.542,7.113L8.664,7.041L8.788,6.971L8.915,6.905L9.042,6.841L9.172,6.78L9.303,6.723L9.431,6.671L9.504,6.643L9.571,6.617L9.639,6.593L9.707,6.569L9.776,6.547L9.845,6.525L9.915,6.503L9.984,6.483L10.055,6.464L10.125,6.445L10.196,6.427L10.267,6.41L10.338,6.394L10.41,6.379L10.482,6.365L10.555,6.351L10.627,6.339L10.7,6.327L10.773,6.317L10.847,6.307L10.921,6.298L10.995,6.29L11.069,6.283L11.143,6.277L11.218,6.271L11.293,6.267L11.368,6.264L11.443,6.261L11.519,6.26L11.594,6.259L11.67,6.26ZM11.541,8.022L11.488,8.023L11.435,8.025L11.382,8.027L11.33,8.03L11.277,8.034L11.225,8.038L11.173,8.043L11.121,8.049L11.069,8.055L11.018,8.062L10.967,8.069L10.916,8.078L10.865,8.086L10.814,8.096L10.764,8.106L10.714,8.116L10.664,8.128L10.614,8.139L10.565,8.152L10.515,8.165L10.466,8.178L10.418,8.193L10.369,8.207L10.321,8.223L10.273,8.239L10.225,8.255L10.178,8.272L10.13,8.29L10.083,8.308L9.99,8.346L9.899,8.386L9.808,8.429L9.718,8.473L9.63,8.52L9.543,8.568L9.457,8.619L9.373,8.672L9.29,8.726L9.209,8.783L9.129,8.841L9.05,8.901L8.973,8.964L8.897,9.028L8.823,9.093L8.751,9.161L8.68,9.23L8.611,9.3L8.544,9.373L8.478,9.447L8.414,9.522L8.352,9.6L8.292,9.678L8.233,9.758L8.177,9.84L8.122,9.923L8.069,10.007L8.019,10.093L7.97,10.18L7.924,10.268L7.879,10.357L7.837,10.448L7.796,10.54L7.758,10.633L7.74,10.68L7.723,10.727L7.706,10.775L7.689,10.822L7.673,10.87L7.658,10.919L7.643,10.967L7.629,11.016L7.615,11.065L7.602,11.114L7.59,11.164L7.578,11.213L7.567,11.263L7.556,11.313L7.546,11.364L7.537,11.414L7.528,11.465L7.52,11.516L7.512,11.568L7.505,11.619L7.499,11.671L7.494,11.723L7.489,11.775L7.484,11.827L7.481,11.879L7.478,11.932L7.475,11.984L7.474,12.037L7.473,12.09L7.472,12.144L7.473,12.197L7.474,12.25L7.475,12.303L7.478,12.356L7.481,12.408L7.484,12.461L7.489,12.513L7.494,12.565L7.499,12.617L7.505,12.668L7.512,12.72L7.52,12.771L7.528,12.822L7.537,12.873L7.546,12.924L7.556,12.974L7.567,13.024L7.578,13.074L7.59,13.124L7.602,13.173L7.615,13.223L7.629,13.272L7.643,13.32L7.658,13.369L7.673,13.417L7.689,13.465L7.706,13.513L7.723,13.56L7.74,13.608L7.758,13.654L7.796,13.747L7.837,13.839L7.879,13.93L7.924,14.02L7.97,14.108L8.019,14.195L8.069,14.28L8.122,14.365L8.177,14.448L8.233,14.529L8.292,14.609L8.352,14.688L8.414,14.765L8.478,14.841L8.544,14.915L8.611,14.987L8.68,15.058L8.751,15.127L8.823,15.194L8.897,15.26L8.973,15.324L9.05,15.386L9.129,15.446L9.209,15.505L9.29,15.561L9.373,15.616L9.457,15.668L9.543,15.719L9.63,15.768L9.718,15.814L9.808,15.859L9.899,15.901L9.99,15.941L10.083,15.979L10.13,15.998L10.178,16.015L10.225,16.032L10.273,16.049L10.321,16.065L10.369,16.08L10.418,16.095L10.466,16.109L10.515,16.123L10.565,16.136L10.614,16.148L10.664,16.16L10.714,16.171L10.764,16.182L10.814,16.192L10.865,16.201L10.916,16.21L10.967,16.218L11.018,16.226L11.069,16.232L11.121,16.239L11.173,16.244L11.225,16.249L11.277,16.254L11.33,16.257L11.382,16.26L11.435,16.263L11.488,16.264L11.541,16.265L11.594,16.266L11.647,16.265L11.7,16.264L11.753,16.263L11.806,16.26L11.859,16.257L11.911,16.254L11.963,16.249L12.015,16.244L12.067,16.239L12.119,16.232L12.17,16.226L12.221,16.218L12.273,16.21L12.323,16.201L12.374,16.192L12.424,16.182L12.475,16.171L12.525,16.16L12.574,16.148L12.624,16.136L12.673,16.123L12.722,16.109L12.771,16.095L12.819,16.08L12.868,16.065L12.916,16.049L12.963,16.032L13.011,16.015L13.058,15.998L13.105,15.979L13.198,15.941L13.29,15.901L13.38,15.859L13.47,15.814L13.558,15.768L13.645,15.719L13.731,15.668L13.815,15.616L13.898,15.561L13.98,15.505L14.06,15.446L14.138,15.386L14.215,15.324L14.291,15.26L14.365,15.194L14.437,15.127L14.508,15.058L14.577,14.987L14.645,14.915L14.71,14.841L14.774,14.765L14.836,14.688L14.897,14.609L14.955,14.529L15.012,14.448L15.066,14.365L15.119,14.28L15.17,14.195L15.218,14.108L15.265,14.02L15.309,13.93L15.352,13.839L15.392,13.747L15.43,13.654L15.448,13.608L15.466,13.56L15.483,13.513L15.499,13.465L15.515,13.417L15.531,13.369L15.545,13.32L15.559,13.272L15.573,13.223L15.586,13.173L15.599,13.124L15.61,13.074L15.622,13.024L15.632,12.974L15.642,12.924L15.652,12.873L15.66,12.822L15.668,12.771L15.676,12.72L15.683,12.668L15.689,12.617L15.695,12.565L15.7,12.513L15.704,12.461L15.708,12.408L15.711,12.356L15.713,12.303L15.715,12.25L15.716,12.197L15.716,12.144L15.716,12.09L15.715,12.037L15.713,11.984L15.711,11.932L15.708,11.879L15.704,11.827L15.7,11.775L15.695,11.723L15.689,11.671L15.683,11.619L15.676,11.568L15.668,11.516L15.66,11.465L15.652,11.414L15.642,11.364L15.632,11.313L15.622,11.263L15.61,11.213L15.599,11.164L15.586,11.114L15.573,11.065L15.559,11.016L15.545,10.967L15.531,10.919L15.515,10.87L15.499,10.822L15.483,10.775L15.466,10.727L15.448,10.68L15.43,10.633L15.392,10.54L15.352,10.448L15.309,10.357L15.265,10.268L15.218,10.18L15.17,10.093L15.119,10.007L15.066,9.923L15.012,9.84L14.955,9.758L14.897,9.678L14.836,9.6L14.774,9.522L14.71,9.447L14.645,9.373L14.577,9.3L14.508,9.23L14.437,9.161L14.365,9.093L14.291,9.028L14.215,8.964L14.138,8.901L14.06,8.841L13.98,8.783L13.898,8.726L13.815,8.672L13.731,8.619L13.645,8.568L13.558,8.52L13.47,8.473L13.38,8.429L13.29,8.386L13.198,8.346L13.105,8.308L13.058,8.29L13.011,8.272L12.963,8.255L12.916,8.239L12.868,8.223L12.819,8.207L12.771,8.193L12.722,8.178L12.673,8.165L12.624,8.152L12.574,8.139L12.525,8.128L12.475,8.116L12.424,8.106L12.374,8.096L12.323,8.086L12.273,8.078L12.221,8.069L12.17,8.062L12.119,8.055L12.067,8.049L12.015,8.043L11.963,8.038L11.911,8.034L11.859,8.03L11.806,8.027L11.753,8.025L11.7,8.023L11.647,8.022L11.594,8.022L11.541,8.022Z" style="fill:rgb(128,128,128);"/>
    </g>
</svg>
